<svg width="21" height="20" viewBox="0 0 21 20" fill="none" xmlns="http://www.w3.org/2000/svg">
<path d="M5.2425 1.0125C3.8725 2.3925 3.8725 4.6125 5.2425 5.9825L13.7325 14.4625C14.3125 15.0525 14.3125 16.0125 13.7325 16.5825C13.1425 17.1725 12.1925 17.1725 11.6025 16.5825L7.3625 12.3425L8.4225 11.2825L4.8925 7.7425L4.5325 8.1025L3.1225 6.6825C2.7325 6.2925 2.1025 6.2925 1.6925 6.6825L0.2925 8.1025C-0.0975 8.5125 -0.0975 9.1225 0.2925 9.5125L1.6925 10.9225L1.3525 11.2825L4.8925 14.8125L5.9525 13.7525L10.1925 18.0125C11.5625 19.3625 13.7725 19.3625 15.1425 18.0125C16.5125 16.6325 16.5125 14.4125 15.1425 13.0525L6.6525 4.5625C6.0725 3.9725 6.0725 3.0125 6.6525 2.4425C7.2425 1.8525 8.1925 1.8525 8.7825 2.4425L13.0225 6.6825L11.9625 7.7425L15.4925 11.2825L15.8525 10.9225L17.2625 12.3425C17.6525 12.7325 18.2925 12.7325 18.6925 12.3425L20.0925 10.9225C20.4825 10.5125 20.4825 9.9025 20.0925 9.5125L18.6925 8.1025L19.0325 7.7425L15.4925 4.2125L14.4325 5.2725L10.1925 1.0125C8.8225 -0.3375 6.6125 -0.3375 5.2425 1.0125ZM1.0025 8.8025L2.4125 7.3925L3.8325 8.8025L2.4125 10.2225M16.5525 10.2225L17.9725 8.8025L19.3825 10.2225L17.9725 11.6325L16.5525 10.2225Z" fill="black"/>
</svg>
